<svg t="1587225152510" class="icon" viewBox="0 0 1024 1024" version="1.1" xmlns="http://www.w3.org/2000/svg" p-id="3569" width="200" height="200"><path d="M288.967856 622.502743l-65.045435 272.408203c-2.628874 10.918677 1.590218 22.334681 10.602476 28.975938 9.046027 6.618744 21.135366 7.263427 30.827099 1.51347L509.978459 780.134877l244.515946 145.265478c4.414543 2.622734 9.353019 3.932566 14.264888 3.932566 5.840008 0 11.642155-1.814322 16.563234-5.41636 9.014304-6.646374 13.232372-18.060331 10.602476-28.975938L730.879568 622.529349l215.923748-182.991708c8.632611-7.283894 12.005428-19.065218 8.546653-29.815049-3.434216-10.749832-13.038968-18.374486-24.291243-19.291368L646.254192 366.91974 535.611256 108.670002c-4.386914-10.279111-14.491039-16.920368-25.66145-16.920368s-21.271466 6.641257-25.653263 16.920368L373.566626 366.91974l-284.718577 23.478737c-11.255345 0.925069-20.86112 8.54563-24.295336 19.297508-3.461845 10.749832-0.081864 22.532179 8.546653 29.814026L288.967856 622.502743 288.967856 622.502743zM394.894374 421.171342c10.304693-0.838088 19.296485-7.316639 23.369244-16.84055l91.686189-213.834156 91.579765 213.80755c4.072759 9.518794 13.060457 16.002462 23.363104 16.83441l234.358609 19.324114L681.65547 590.977749c-8.042163 6.789637-11.556197 17.534352-9.102309 27.78481l53.718459 224.88791L524.249487 723.621768c-8.767688-5.245468-19.744693-5.245468-28.511357 0L293.608549 843.679122l53.712319-224.916563c2.454912-10.251481-1.058099-20.996197-9.100262-27.78481L160.678004 440.46271 394.894374 421.171342 394.894374 421.171342zM394.894374 421.171342" p-id="3570"></path></svg>
