<?xml version="1.0" standalone="no"?><!DOCTYPE svg PUBLIC "-//W3C//DTD SVG 1.1//EN" "http://www.w3.org/Graphics/SVG/1.1/DTD/svg11.dtd"><svg t="1603984037235" class="icon" viewBox="0 0 1024 1024" version="1.1" xmlns="http://www.w3.org/2000/svg" p-id="5812" xmlns:xlink="http://www.w3.org/1999/xlink" width="128" height="128"><defs><style type="text/css"></style></defs><path d="M552.533333 220.330667c-32.554667 32-54.229333 62.933333-60.245333 87.765333a54.101333 54.101333 0 0 0-1.621333 12.245333 42.666667 42.666667 0 1 1-85.333334-0.682666 139.093333 139.093333 0 0 1 4.010667-31.573334c10.581333-43.818667 40.448-86.4 83.413333-128.64a634.794667 634.794667 0 0 1 80.682667-66.816 42.666667 42.666667 0 0 1 66.389333 39.082667c-6.485333 74.709333 29.44 148.394667 113.493334 224.256a341.333333 341.333333 0 1 1-482.688 0 42.666667 42.666667 0 0 1 69.290666 13.184c45.269333 104.192 106.368 165.248 183.68 187.136a42.666667 42.666667 0 1 1-23.210666 82.090667c-85.973333-24.32-155.306667-82.773333-207.658667-173.312a256 256 0 0 0 400.298667 313.258666c99.968-99.968 99.968-262.016 1.578666-360.490666-72.021333-64.896-117.077333-133.632-133.674666-205.568l-8.362667 8.064z" p-id="5813"></path></svg>