<?xml version="1.0" standalone="no"?><!DOCTYPE svg PUBLIC "-//W3C//DTD SVG 1.1//EN" "http://www.w3.org/Graphics/SVG/1.1/DTD/svg11.dtd"><svg t="1589035220057" class="icon" viewBox="0 0 1024 1024" version="1.1" xmlns="http://www.w3.org/2000/svg" p-id="6320" xmlns:xlink="http://www.w3.org/1999/xlink" width="200" height="200"><defs><style type="text/css"></style></defs><path d="M509.544 0.04l5.894 0.083 4.625 0.655L525.3 2.21l4.339 1.76 439.64 220.68a40.927 40.927 0 0 1-32.332 75.02l-4.38-1.883L512 86.684 91.431 297.787a40.927 40.927 0 0 1-52.55-14.08l-2.456-4.133a40.927 40.927 0 0 1 14.08-52.55l4.174-2.374L496.284 3.11l4.215-1.473 4.339-1.023 4.706-0.573z" p-id="6321"></path><path d="M511.59 528.084l5.935-0.368 4.502-0.86 3.315-0.982 3.315-1.35 440.623-221.09a40.927 40.927 0 0 0-32.332-75.06l-4.38 1.883L512 441.44 91.431 230.216a40.927 40.927 0 0 0-52.55 14.12l-2.415 4.133a40.927 40.927 0 0 0 14.08 52.551l4.174 2.415 440.623 221.089 4.42 1.678 3.274 0.9 4.215 0.737 4.339 0.245z" p-id="6322"></path><path d="M511.59 753.184l5.935-0.368 4.502-0.86 3.315-0.982 3.315-1.35 440.623-221.09a40.927 40.927 0 0 0-32.332-75.06l-4.38 1.883L512 666.54 91.431 455.357a40.927 40.927 0 0 0-52.55 14.079l-2.415 4.133a40.927 40.927 0 0 0 14.08 52.55l4.174 2.416 440.623 221.089 4.42 1.678 3.274 0.9 4.215 0.737 4.339 0.245z" p-id="6323"></path><path d="M511.59 998.748l5.935-0.368 4.502-0.86 3.315-0.982 3.315-1.35 440.623-221.09a40.927 40.927 0 0 0-32.332-75.06l-4.38 1.882L512 912.105 91.431 700.92A40.927 40.927 0 0 0 38.881 715l-2.415 4.133a40.927 40.927 0 0 0 14.08 52.55l4.174 2.415 440.623 221.09 4.42 1.677 3.274 0.9 4.215 0.737 4.339 0.246z" p-id="6324"></path></svg>